<svg xmlns="http://www.w3.org/2000/svg" xmlns:xlink="http://www.w3.org/1999/xlink" viewBox="0 0 480 228">
  <g class="colorize" id="stripes" style="isolation: isolate">
    <path d="M294,15.75c15.83.48,42.12,26.44,52.5,36,15,3,34.23,9.39,50.25,4.5,14.4-4.4,23.67-8,36-16.5,5.46-3.77,4.4-12.67,12.75-16.5,3.27-2.31,8.88-2.53,13.5-1.5l.75,1.5V24c-11.93,7.57-13.14,28.67-30,36C392.32,76.28,358.17,70.21,330,48c-8.5-7.75-16.82-14.35-24-23.25l-19.5-7.5Z" fill-rule="evenodd"/>
    <path d="M458.25,66c8,.76,11.65,6,12.75,13.5C442.13,98,393.63,100.85,355.5,108.75c-20.37,4.22-43.19,3.11-57,13.5-12.84,9.66-17.53,29.88-20.25,49.5-14.92,1.45-45.85,6.08-58.5,3-6.82-15.21-26.67-26.05-42-33C193.45,104,238,97.62,284.25,90c15.25-.25,25.25-1.25,40.5-1.5,35.31-2.61,66.17-5.88,96-13.5C433.25,71.75,445.75,69.25,458.25,66Z" fill-rule="evenodd"/>
  </g>
  <g class="colorize" d="top" style="isolation: isolate">
    <path d="M457.5,25.5l5.25,1.5,10.5,51.75h-3c-1.16-5.07-3.2-9.94-7.5-12-4.6-2.56-60.17,13.76-73.5,16.5C348.68,91.59,304.62,86.7,261,94.5c-22.35,4-35.53,15.76-60.75,10.5-21-.5-46.5.45-67.5-1.5,19.77-.93,40.11-11.53,54.75-18L273,48.75C285.78,43.18,297.53,34,312.75,31.5c23,30.48,80.33,52,123,24C446.29,48.6,446.78,32.91,457.5,25.5Z" fill-rule="evenodd"/>
    <path d="M363,107.25c2-.13,1.36-.81,3.75-1.5,4.16-1.12,5,0,4.5,0-15.28,7.52-24,20.55-27,42a178.12,178.12,0,0,0-48.75-22.5l.75-1.5c8.8-5.73,13.12-8.74,26.25-10.5Z" fill-rule="evenodd"/>
  </g>
  <g class="colorize" id="laces" style="isolation: isolate">
    <path d="M276.75,15.75c3.4,0,4.31.15,6,1.5-.93,5,4.22,8.47,2.25,11.25-.75.75-5.25,2.25-6,3-8.85-1.39-10.61-5.36-19.5-.75,2.12,3.24,2.31,7.46,1.5,12-9.76,3.38-13.9-3.94-22.5-1.5H237c1.59,2.87,2.46,3.18,3,7.5-1,1-2.75,3.5-3.75,4.5-6.29.8-9.2-2.27-14.25-4.5l2.25-3C235.43,41.46,233,36.64,243,30c5-.5,9.87-2.7,15-1.5Z" fill-rule="evenodd"/>
    <path d="M210,51.75h6v1.5c.5,1.75,1,4.25,1.5,6-3.55,3.4-3.42,4-11.25,3.75-1.75-.75-3.5-3-5.25-3.75-.58-4.53-1.24-1,.75-4.5Z" fill-rule="evenodd"/>
    <path d="M190.5,61.5c3,1.66,3.18,2.66,4.5,6-.75,2,0,3.25-.75,5.25-9.86,1.4-12.49-1.57-16.5-4.5l2.25-3Z" fill-rule="evenodd"/>
    <path d="M165.75,71.25c2.25,0,4.5-.75,6.75-.75-.25,3.25,1,6.5.75,9.75-.28,2.9-4,3-5.25,4.5L164.25,84c-3.71-1.66-5.08-3.8-6.75-7.5v-.75C160.25,74,163,73,165.75,71.25Z" fill-rule="evenodd"/>
    <path d="M148.5,80.25c2,2,2.5,9.31,2.25,13.5-2.75,3.31-5.84,1.5-9.75-.75-.75-2-3.63-2.22-2.25-6C141.57,83.84,144.74,82.54,148.5,80.25Z" fill-rule="evenodd"/>
  </g>
  <g class="colorize" id="sole" style="isolation: isolate">
    <path d="M351,175.5l81-1.5c0-1.75,1.5-5,1.5-6.75,13.75-.75,26,0,39.75-.75.47,17.51-3.48,26.71-9,37.5-12,.36-11.88,5.77-18,11.25-7.47-1.08-8.42-5.1-16.5-6-1.23,3.74-2.08,4.29-5.25,6-6.21-1.61-7.29-5.2-15-6-10,9.05-10.07,1.63-24,.75l-6,5.25c-5.07-2.7-7.37-5.55-15-6l-6,6c-5.41-2.74-8.52-5.57-16.5-6-7.67,8.07-9.84,1.17-21.75,0-.91,3.28-1.52,4.19-3.75,6-5.14-2.64-5.24-5.69-13.5-6l-4.5,6c-5-2.17-7.6-4.63-14.25-5.25-8.3,8.07-6.8,1-18.75,0l-3,4.5c-7.44-1.48-6.85-4.08-16.5-3.75-1.17,3.28-1.78,3.63-4.5,5.25-5.45-1.48-10-6.92-16.5-4.5l-3.75,3.75-19.5-3L198,217.5l-6.75-1.5-.75-3.75h-9.75c-1.67,3.58-1.7,4.74-6.75,5.25l-14.25-5.25-4.5,5.25c-7.07-.51-7.52-4.15-12.75-5.25-7.61-1.6-8,4.79-13.5,3.75-3.46-1.16-3.44-1.87-4.5-5.25-9.6,0-13.6,5.27-20.25,1.5l-.75-4.5c-8.44.33-12.55,4.22-18.75,1.5L83.25,204l-16.5,1.5c-12.32-19-54.49-16.14-51.75-48.75l1.5.75c6.61,13.83,54.77,15.62,75,18,86.19,10.12,172.5-7.2,258.75-7.5C350.5,170.25,350.75,173.25,351,175.5Z" fill-rule="evenodd"/>
  </g>
  <g class="colorize" id="toeheel" style="isolation: isolate">
    <path d="M432.75,168.75v6c-.5,0-2.61.92-2.25,0-26.75.25-53.5,1.25-80.25,1.5-.25-2.25-.5-6-.75-8.25-4.1.14-6.07,1.31-8.25,0,.69-6.93.19-8,1.5-15.75,1.5-.25,0-2.75,1.5-3-.13-33.15,22.61-44.92,47.25-48.75,14.72-2.29,23.12-3.58,33-6,11.89-2.92,40.64-11.79,50.25-16.5v5.25c3.34,33.69,1.25,73.44-8.25,84C454.5,168,448.52,168.29,432.75,168.75Z" fill-rule="evenodd"/>
    <path d="M40.5,120.75c8.75,10.21,17.45,7.34,40.5,9h9c5.65.14,5.44-.5,12.75,0,14.35,1,60.94,2,75.75,11.25,0,1.25,5.25,2.5,5.25,3.75,5.25,2.5,8.25,4.25,13.5,6.75,5.95,4.78,10.25,6.25,14.25,11.25,5.54,5.06,5.29,6.39,10.5,14.25h-1.5c-15.73,1.14-35.92,3.09-60,2.25-52.78,1.26-124-5.35-144-17.25C2.74,132.48,29.16,129.8,40.5,120.75Z" fill-rule="evenodd"/>
  </g>
  <g class="colorize" id="top" data-name="top-2" style="isolation: isolate">
    <path d="M284.25,18c14-.35,19.9,4.3,27,12.75,2.59,2.9-2,1-2.25,1.5-43.26,22-87.75,38.25-131.25,58.5-19.1,8.38-44.12,18.71-68.25,8.25l2.25-3c9.08-2.07,20.45-3.83,27.75-7.5l4.5,6.75,5.25-.75L150,81.75l8.25-3c3.76,3.75,6.9,7,13.5,3.75.5-4.25.25-7.75.75-12,1.75-.75,4.25-1.5,6-2.25,2.82,2.21,15.79,8,15.75,1.5,0-3.7-1.45-6.16-.75-9,1.5-.75,5.25-2.25,6.75-3,3.88,2,8.15,6.66,13.5,4.5l3-1.5c.66-3.7-.58-5.55-1.5-9,2.25-1,5.25-2,7.5-3,3.43,2,8.75,5.54,13.5,3.75L240,50.25c-.33-5.83-2.12-6.34-3.75-10.5,6.49,1,15.87,3.22,22.5,3,1.25-1.25,1-2.5,2.25-3.75-.55-5.09-.77-6.62-3-9.75h1.5c8.45-3.27,14,1.63,21.75,1.5l4.5-3c0-1-1.5-2.75-1.5-3.75-1.5-1.75-1.5-2.75-3-4.5Z" fill-rule="evenodd"/>
  </g>
  <g class="colorize" id="Layer_2" data-name="Layer 2" style="isolation: isolate">
    <path d="M109.5,96.75c1.25,1.25,4,2.5,5.25,3.75,12.65,3.57,81.46,4.72,99.75,5.25l-.75,1.5c-15.84,6.43-25.37,22-36.75,33-22.61-9.73-52.65-8.51-78.75-9.75-20.73-1-42.13,1.95-55.5-6.75,0-1.25-1.5-1.75-1.5-3,.5,0,2.5-.75,3-.75C65.25,112.5,88.5,104.25,109.5,96.75Z" fill-rule="evenodd"/>
    <path d="M296.25,125.25c18.83,6.09,32.16,10.15,48,21-1,7-2,15.5-3,22.5l-63.75,3C279.81,152.16,283.28,136.16,296.25,125.25Z" fill-rule="evenodd"/>
  </g>
  <g id="shadow_Image" data-name="shadow Image">
    <image id="shadow_Image-2" data-name="shadow Image" width="640" height="304" transform="scale(0.75)" xlink:href="sneaker1.png"/>
  </g>
</svg>
